<?xml version="1.0" encoding="utf-8"?>
<!-- Generator: Adobe Illustrator 27.7.0, SVG Export Plug-In . SVG Version: 6.00 Build 0)  -->
<svg version="1.1" id="Layer_1" xmlns="http://www.w3.org/2000/svg" xmlns:xlink="http://www.w3.org/1999/xlink" x="0px" y="0px"
	 viewBox="0 0 535 521.9" style="enable-background:new 0 0 535 521.9;" xml:space="preserve">
<g>
	<g>
		<path d="M207,297.5c-25.4,0-50.9,0-76.3,0c-11.2,0-21.2-7.2-24.1-17.9c-3.4-12.2-0.4-24.9,10.3-31.8c3.7-2.4,7.7-3.9,12.2-3.9
			c14.2-0.1,28.3-0.1,42.5-0.1c10.1,0,20.2,0,30.4,0.1c1.8,0,2.2-0.6,2.2-2.3c-0.1-2.5,0-4.9,0-7.4c0.1-3.3,1.7-5.3,4.8-6.4
			c6.8-2.3,11-8.3,10.9-15.3c0-7.4-5.9-14.4-12.9-15.5c-8.5-1.3-16.1,3.4-18.4,11.2c-0.2,0.6-0.3,1.3-0.5,1.9
			c-0.3,1.6-1.3,2.6-2.8,2.4c-1.7-0.3-2.3-1.6-2.1-3.3c0.5-4.7,2.8-8.5,6-11.7c5.8-5.8,14.9-7.6,22.6-4.4
			c7.9,3.2,13.1,10.8,13.1,19.2c0.1,8.3-3.6,14.5-10.5,18.6c-3.2,1.9-4.6,4.3-4.5,7.9c0.1,4.9,0,4.9,4.9,4.9c22.6,0,45.2,0.1,67.9,0
			c13.6-0.1,23.2,9.2,25.2,19.3c2.5,12.6-0.2,23.9-11.4,30.9c-4,2.5-8.5,3.7-13.2,3.7C257.9,297.5,232.4,297.5,207,297.5z
			 M207,290.9c21,0,41.9,0,62.9,0c5.1,0,10.3,0.1,15.4-0.1c5-0.2,9.1-2.5,12.4-6.3c3.9-4.5,4.8-9.9,4.6-15.6
			c-0.4-10.7-8.4-18.6-19.1-18.6c-50.8,0-101.6,0-152.4,0c-4.3,0-8.1,1.1-11.5,3.8c-7.5,5.9-8.5,13.8-6.8,22.5
			c1.5,7.5,8.6,14.4,18.7,14.4C156.4,290.8,181.7,290.9,207,290.9z"/>
		<path d="M439.7,273.3c-6.2,0-12.4,0-18.6,0c-1.9,0-2.3,0.5-2,2.4c1.8,11.7,12.7,16.6,22.9,13.4c3.8-1.2,6.5-3.6,8.2-7.2
			c0.5-1.2,1.2-1.6,2.5-1.5c1.7,0.1,3.5,0.1,5.2,0c1.8-0.1,1.9,0.5,1.3,2c-3.1,7.5-8.5,12.3-16.4,14c-9.8,2.1-18.7,0.5-25.8-7.1
			c-6-6.5-7.4-14.5-6.5-23c0.7-6.8,3.4-12.8,8.8-17.3c11.9-9.8,36.1-7.4,40.9,13c0.8,3.2,0.6,6.4,0.6,9.7c0,1.6-0.9,1.7-2.1,1.7
			C452.4,273.3,446,273.3,439.7,273.3C439.7,273.3,439.7,273.3,439.7,273.3z M435.6,266.5c4.2,0,8.4,0,12.5,0c4.8,0,4.8-0.1,3.5-4.8
			c-1.9-6.9-7.6-10.9-15.7-11.1c-8.6-0.2-15.5,5.5-16.8,13.8c-0.2,1.6,0,2.3,1.9,2.2C425.9,266.4,430.7,266.5,435.6,266.5z"/>
		<path d="M360.9,250.8c0.8,0.1,1-0.4,1.2-0.7c6-7.1,16.8-8.3,24.5-5.3c7.9,3.1,11.8,9.5,12.1,17.7c0.4,10.7,0.1,21.4,0.2,32.1
			c0,1.4-0.5,1.7-1.8,1.7c-1.5-0.1-3-0.1-4.5,0c-1.6,0.1-1.9-0.5-1.9-1.9c0.1-9,0-17.9,0-26.9c0-3.1-0.3-6-1.6-8.9
			c-2.2-5.1-6.3-7.5-11.7-7.9c-4.6-0.3-8.8,0.5-12.2,3.9c-3.7,3.7-4.4,8.5-4.5,13.4c-0.1,8.6-0.1,17.2,0,25.8c0,1.9-0.5,2.6-2.5,2.5
			c-5.9-0.1-6,0-5.9-5.9c0.3-9.9-0.3-19.8,0.2-29.7c0.3-6.4-0.6-12.8-0.1-19.3c0.3-4.6,0.1-9.1-0.1-13.6c-0.1-1.4,0.4-2,1.8-1.9
			c1.5,0.1,3,0.1,4.5,0c1.5-0.1,2,0.5,2,2c-0.1,6.5,0,13,0,19.5C360.8,248.6,360.9,249.7,360.9,250.8z"/>
		<path d="M474.1,281.2c0.4,0,0.9,0,1.3,0c2-0.3,3.3,0.1,3.8,2.5c0.5,2.2,2.2,3.7,4.2,4.7c4.3,2.2,8.7,2.3,13.2,0.7
			c3-1.1,5-3.2,5.1-6.6c0.1-3.2-2-4.9-4.6-6.2c-3.5-1.6-7.3-2.3-10.9-3.4c-3.2-1-6.4-1.9-9.2-3.7c-7.7-4.9-8.5-15.1-1.5-21
			c5.3-4.5,11.6-5.2,18.1-4.5c3.8,0.4,7.3,1.8,10.2,4.3c3.1,2.6,4.7,6.1,5.4,10.1c0.2,1-0.1,1.5-1.2,1.4c-0.5,0-1,0-1.5,0
			c-3.2,0.3-6,0.4-6.9-3.8c-0.4-1.9-2.3-3.1-4.2-3.9c-4-1.6-8-1.6-12,0c-2.6,1-4.2,3.1-4.4,5.9c-0.1,2.8,1.3,4.8,3.7,6.2
			c3.5,2,7.5,2.8,11.4,4c3.3,1,6.6,2,9.6,3.9c7,4.5,8.1,13.5,2.5,19.7c-3.1,3.4-7,5-11.4,5.6c-6.8,0.9-13.3,0-18.9-4.2
			c-3.3-2.5-5.3-5.7-6.1-9.9c-0.3-1.5,0.3-1.7,1.5-1.6C472.3,281.2,473.2,281.2,474.1,281.2z"/>
		<path d="M74.6,260.7c-2.8,0-5.3,0-7.9,0c-0.8,0-1.1-0.4-1.4-1.1c-2.5-6.4-8.4-9.7-17-8.9c-6.1,0.6-11.2,4.9-13.1,11.6
			c-1.8,6.1-1.7,12.1,0.7,18c2.2,5.4,6.3,8.8,12.1,9.5c6.1,0.7,11.7-0.3,15.6-5.7c0.1-0.2,0.2-0.4,0.4-0.5c0.9-1.1,0.8-3.3,2.1-3.5
			c2.5-0.5,5.2-0.3,7.8-0.2c1.2,0.1,0.5,1.1,0.3,1.6c-2.3,6.6-6.7,11.4-13.3,13.9c-11.6,4.4-24.5,0.7-30.9-8.8
			c-7.8-11.6-5.3-30.2,5.1-38.2c10.3-7.9,27.4-6.4,35.2,3.2C72.5,254.3,74,257.2,74.6,260.7z"/>
		<path d="M319.6,268.5c0-5.1-0.1-10.1,0-15.2c0-1.6-0.3-2.3-2.1-2.2c-5.2,0.1-5.1,0-4.8-5.3c0.1-1.1,0.4-1.6,1.5-1.5
			c0.7,0,1.4,0,2.2,0c3.5,0,3.2,0.4,3.2-3.3c0-2.7,0.1-5.3,0-8c-0.1-1.5,0.5-1.8,1.9-1.9c6.6-0.2,6.6-0.2,6.6,6.4
			c0,1.6,0.1,3.2,0,4.8c-0.1,1.5,0.4,2.1,2,2c3.2-0.1,6.5,0,9.8-0.1c1.4,0,1.9,0.3,1.9,1.8c0.1,5.1,0.1,5.1-4.9,5.1
			c-2.3,0-4.6,0.1-6.9,0c-1.3,0-1.8,0.3-1.8,1.7c0.1,10.2,0,20.4,0.1,30.6c0,3.7,1.7,5.3,5.4,5.7c2.2,0.2,4.3,0.2,6.5,0.2
			c1,0,1.5,0.3,1.6,1.5c0.3,5.6,0.4,5.6-5.2,5.6c-2.7,0-5.5,0.2-8.2-0.5c-5.4-1.4-8.5-5.7-8.6-12c0-0.1,0-0.3,0-0.4
			C319.6,278.3,319.6,273.4,319.6,268.5z"/>
		<path d="M86.7,261c0-11,0-21.9,0-32.9c0-1.6,0.4-2.1,2-2.1c6.5,0,6.5-0.1,6.5,6.4c0,20.2,0,40.4,0,60.6c0,3.2,0,3.2-3.3,3.2
			c-5.2,0-5.2,0-5.2-5.1C86.7,281.1,86.7,271.1,86.7,261z"/>
	</g>
</g>
</svg>
